<svg xmlns="http://www.w3.org/2000/svg" viewBox="0 0 116 44">
	<defs>
		<style>.a{fill:#fff;}</style>
	</defs>
	<title>Logo_Sparx</title>
	<path class="a" d="M94.65,20.14l.22.33L94,17.69a.17.17,0,0,1,.09-.18l0,0a.17.17,0,0,1,.24.12l.64,2.8c0-.95,0-2.06,0-2.06a.11.11,0,0,1,.06-.09.18.18,0,0,1,.1,0,.13.13,0,0,1,.14.11v.06s0,.81-.07,1.83l.07-.31v0l0,0v.55l.28-1.76a.1.1,0,0,1,0-.08.11.11,0,0,1,.08,0h0a.08.08,0,0,1,.07,0,.1.1,0,0,1,0,.09h0l-.3,1.39c-.07.32-.14.64-.16.76L97.15,16a.22.22,0,0,1,.1-.11.17.17,0,0,1,.14,0,.17.17,0,0,1,.11.22h0l-2,4.64.58-1.15,0,.07,0-.08-.21.5,3.53-6.48.09-.19a.16.16,0,0,0-.06-.22.17.17,0,0,0-.22.06l-.55,1.12-2.33-4h-8.2l6.51,9.75Z"/>
	<path class="a" d="M110.14,19.73a.1.1,0,0,0,.08-.12.1.1,0,0,0-.11-.08h0l-4,.68.21,0-.17,0,4.06-.47Z"/>
	<path class="a" d="M111.59,16.9a.24.24,0,0,0,.16-.3.24.24,0,0,0-.3-.16l-2.29.72h0l-12.74,4,8.24-1.83.38-.58,6.57-1.88Z"/>
	<path class="a" d="M102.66,20.9l1-.12.68-1,.86-.19a.09.09,0,0,0,.06-.1.08.08,0,0,0-.08-.06l-9,1.94.47-.09c.08,0,.13,0,.15,0l3.85-.53a.13.13,0,0,1,.15.09.07.07,0,0,1,0,.05.13.13,0,0,1-.1.09h0l-3.86.39a.09.09,0,0,1,0,.05l5.72-.23a.09.09,0,0,1,.09.09h0a.12.12,0,0,1-.1.1h0L96,21.53l.46,0,1.32.08,1.31.08,1.32.08s0,0,0,0h0a0,0,0,0,1,0,0h0l-1.32-.09-1.31-.1-2-.13,8.81,1.2-1.13-1.69.17-.26-1,.09.48-.06Z"/>
	<path class="a" d="M21.85,21.61a8.35,8.35,0,0,0-2.23-1.13A24.56,24.56,0,0,0,17,19.76c-.85-.2-1.69-.39-2.51-.56a19.67,19.67,0,0,1-2.19-.57,4.6,4.6,0,0,1-1.56-.83,1.64,1.64,0,0,1-.59-1.32,1.62,1.62,0,0,1,.34-1.09,2.24,2.24,0,0,1,.83-.62,3.57,3.57,0,0,1,1.08-.27c.4,0,.77-.07,1.11-.07a6.06,6.06,0,0,1,2.81.62,2.66,2.66,0,0,1,1.32,2.36h5.75A7.29,7.29,0,0,0,22.38,14a6.91,6.91,0,0,0-2.19-2.15,9.23,9.23,0,0,0-3-1.15,17.23,17.23,0,0,0-3.47-.34,19.12,19.12,0,0,0-3.49.32,9.43,9.43,0,0,0-3.07,1.11A6,6,0,0,0,5,14a6.63,6.63,0,0,0-.83,3.49,4.65,4.65,0,0,0,.6,2.44,5.11,5.11,0,0,0,1.57,1.67,8.75,8.75,0,0,0,2.24,1.06c.83.27,1.69.5,2.57.7a37.79,37.79,0,0,1,5.05,1.36c1.2.46,1.81,1.14,1.81,2a2.21,2.21,0,0,1-.39,1.34,2.87,2.87,0,0,1-.95.85,4.76,4.76,0,0,1-1.28.47,6.47,6.47,0,0,1-1.34.15,7.07,7.07,0,0,1-1.73-.21,4.92,4.92,0,0,1-1.47-.66,3.71,3.71,0,0,1-1-1.15,3.33,3.33,0,0,1-.4-1.69H3.63a7.46,7.46,0,0,0,1,3.69A7.33,7.33,0,0,0,7,31.89a9.92,9.92,0,0,0,3.26,1.28,18.63,18.63,0,0,0,3.75.38,18.89,18.89,0,0,0,3.68-.36,9.21,9.21,0,0,0,3.21-1.26,6.87,6.87,0,0,0,2.28-2.36A7,7,0,0,0,24,25.93a5.24,5.24,0,0,0-.59-2.58A5.59,5.59,0,0,0,21.85,21.61Z"/>
	<path class="a" d="M99,14.88l-3.42,6,1.62-2.32,0,0a.07.07,0,0,1,.09,0,.07.07,0,0,1,0,.06l.4-.53s0,0,0,0a.1.1,0,0,1,.12,0,.1.1,0,0,1,0,.13h0l-1.42,1.72,0,0,5.1-5.79h0a.06.06,0,1,1,.08.08l-6.16,7,.1-.09,7.76-7a.14.14,0,0,1,.19,0h0a.13.13,0,0,1,0,.18h0l-7.39,6.51c1.3-.92,4.51-3.15,4.51-3.15a.19.19,0,0,1,.24,0,.15.15,0,0,1,0,.18.1.1,0,0,1,0,.06h0l-2.33,1.49a.07.07,0,0,1,.08,0,.08.08,0,0,1,0,.1.26.26,0,0,1-.08.08L96,21.07c.24-.12,1.2-.59,1.56-.78l1.25-.64,1.24-.64,2.48-1.3L105,16.4a.05.05,0,0,1,.08,0h0a.08.08,0,0,1,0,.08h0l-2.5,1.27c-.84.42-1.67.85-2.5,1.28l-1.25.64-1.24.65-.9.48-.41.21,1.33-.47a.06.06,0,0,1,.08,0v0l7.73-2.41.52-.79,2.15-.82h0a.17.17,0,0,0,.09-.21.16.16,0,0,0-.22-.09l-1.78.75,2.25-3.37L111.26,12h0a.18.18,0,0,0,.06-.26.19.19,0,0,0-.26-.06l-.92.57h0l-1.25.77,0,0-7.07,4.35.06-.05-.06,0s5.57-3.7,7.49-5l1.29-2h-7.85l-3.18,5.41Zm3.28,3.94h0l-5.4,2,.07,0-.06,0s5.25-2.27,5.25-2.27a.18.18,0,0,1,.23.08.2.2,0,0,1,0,.07A.15.15,0,0,1,102.23,18.82Zm1.7-6.47h0s0,0,.05,0,0,0,0,.06h0l-3.37,3.49,0-.05,0,0Z"/>
	<path class="a" d="M45.39,13.82a8.89,8.89,0,0,0-3.22-2.51,10.35,10.35,0,0,0-4.53-.92,9.53,9.53,0,0,0-4,.83A6,6,0,0,0,30.83,14h-.09V11h-4.6V41.13H31v-11h.08a5.91,5.91,0,0,0,1.39,1.56,7.68,7.68,0,0,0,1.81,1.08,8.92,8.92,0,0,0,2,.62,11.8,11.8,0,0,0,2.13.19,8.53,8.53,0,0,0,7.17-3.51,11.29,11.29,0,0,0,1.75-3.68,16.27,16.27,0,0,0,.57-4.3,15.66,15.66,0,0,0-.64-4.56A10.75,10.75,0,0,0,45.39,13.82Zm-2.62,11a7.14,7.14,0,0,1-1.06,2.47,5.85,5.85,0,0,1-1.9,1.77,6.08,6.08,0,0,1-5.43.08,6,6,0,0,1-1.94-1.61,7.11,7.11,0,0,1-1.21-2.45,11.27,11.27,0,0,1-.4-3.09,9.37,9.37,0,0,1,1.55-5.66A5.36,5.36,0,0,1,37,14.22a5.23,5.23,0,0,1,2.64.66,6,6,0,0,1,1.92,1.75,7.91,7.91,0,0,1,1.15,2.49A11.12,11.12,0,0,1,43.09,22,12.66,12.66,0,0,1,42.77,24.84Z"/>
	<path class="a" d="M95.84,23.5a.08.08,0,0,1,0,.05.06.06,0,0,1,0,0s0,0-.06,0l-.34-1.16c.26,1.06,1,4.07,1,4.07a.12.12,0,0,1,0,.13.14.14,0,0,1-.27,0h0s-.64-3.14-.9-4.47l0,1a.1.1,0,0,1,0,0s0,.06,0,.06-.08-.57-.11-.92c-.3,1-1,3.17-1,3.17a.09.09,0,0,1,0,0,.12.12,0,0,1-.22-.09h0l1.14-3.18,0,.08h0v-.05l-.22.37h0l0,0,.11-.36-.11.12h0L87.5,33.08h8.19l3.08-5.43c-.66-1.09-2.74-4.51-3.39-5.54Z"/>
	<path class="a" d="M111.34,24.48a.16.16,0,0,0,.18-.14.17.17,0,0,0-.14-.18c-1.34-.17-2.69-.36-4-.56l-2-.3-.4-.06,0-.06-2.72-.47a.1.1,0,0,1,0,0,.19.19,0,0,1,0,.15h0a.21.21,0,0,1-.21.17h0l-6-1.32,7,2.15a.21.21,0,0,1,.16.23h0v0a.15.15,0,0,1-.14.14h0l.06,0-7.19-2.54.44.21-.19-.07.18.09-.42-.16,9.27,4.3a.13.13,0,0,1,.07.08.1.1,0,0,1,0,.09.16.16,0,0,1-.19,0h0L96,22l1.3.75s.09.08,0,.15l0,0s0,0,0,0l5.57,3.53a.14.14,0,0,1,.07.14.1.1,0,0,1,0,.07.13.13,0,0,1-.18.05h0L97.22,23h0l-1.68-1.09,9,8.06a.13.13,0,0,1,0,.11.11.11,0,0,1,0,.11.15.15,0,0,1-.21,0h0l-8.61-8,1.72,2a.11.11,0,0,1,0,.13.05.05,0,0,1,0,0,.1.1,0,0,1-.14,0h0s-1-1.29-1.54-2l.09.18-.06-.08,0,.1-.21-.29c.7,1.1,2.59,4.17,3.25,5.25l.56-1,3.92,6.54h8.2L110,30.76l-5.39-3.23.75.43-.76-.45,5.2,2.94-3.49-5.22,1.22.36,1,.29,1,.28a.16.16,0,0,0,.21-.11.17.17,0,0,0-.12-.2l-1-.28-1-.29L106,24.84l-1-1.46.28,0,2,.34c1.34.23,2.68.47,4,.72Z"/>
	<path class="a" d="M83.83,10.73a8.37,8.37,0,0,0-2,1,7.81,7.81,0,0,0-1.66,1.49A7.65,7.65,0,0,0,79,15.07h-.08V11H73.19V33h6V23.08a12.66,12.66,0,0,1,.29-2.77,6.27,6.27,0,0,1,1-2.24,5,5,0,0,1,1.86-1.51A6.4,6.4,0,0,1,85.2,16c.36,0,.75,0,1.15.06l1,.15V10.6a4.86,4.86,0,0,0-1.32-.21A7.16,7.16,0,0,0,83.83,10.73Z"/>
	<path class="a" d="M70.08,29.76a1,1,0,0,1-.92-.38,2.67,2.67,0,0,1-.23-1.28V16.78a5.43,5.43,0,0,0-.77-3,6.07,6.07,0,0,0-2-2,9.19,9.19,0,0,0-2.83-1.11,14.91,14.91,0,0,0-3.19-.34,18.41,18.41,0,0,0-3.58.34,9.34,9.34,0,0,0-3.13,1.19,7.13,7.13,0,0,0-2.28,2.26,7.42,7.42,0,0,0-1,3.53H55a3.33,3.33,0,0,1,1.5-2.64,6.13,6.13,0,0,1,3.36-.85,12,12,0,0,1,1.53.11,4.83,4.83,0,0,1,1.47.42,3.08,3.08,0,0,1,1.11.92,2.54,2.54,0,0,1,.44,1.53,2.16,2.16,0,0,1-.53,1.6,3.26,3.26,0,0,1-1.45.79,11.72,11.72,0,0,1-2.1.36,24.63,24.63,0,0,0-2.52.36c-1,.11-2,.28-3,.49a8.69,8.69,0,0,0-2.72,1,5.45,5.45,0,0,0-2,2,6.5,6.5,0,0,0-.75,3.32A6.22,6.22,0,0,0,49.92,30a5.77,5.77,0,0,0,1.66,2A7.65,7.65,0,0,0,54,33.19a9.87,9.87,0,0,0,2.85.4A13.83,13.83,0,0,0,60.9,33a8.5,8.5,0,0,0,3.56-2A3,3,0,0,0,65.74,33a4.73,4.73,0,0,0,2.47.59,7,7,0,0,0,.72,0,8.32,8.32,0,0,0,.85-.13c.28-.05.56-.12.83-.19s.49-.13.66-.19V29.68a3.65,3.65,0,0,1-.68.08Zm-6-4.17a3.29,3.29,0,0,1-.56,1.94,4.72,4.72,0,0,1-1.38,1.29,5.71,5.71,0,0,1-1.77.73,8,8,0,0,1-1.74.21,8.43,8.43,0,0,1-1.43-.13,5.11,5.11,0,0,1-1.45-.44,3.6,3.6,0,0,1-1.13-.88A2,2,0,0,1,54.16,27a3.6,3.6,0,0,1,.32-1.6,2.75,2.75,0,0,1,.87-1.06,4.51,4.51,0,0,1,1.28-.64,10.13,10.13,0,0,1,1.49-.36c1.07-.2,2.15-.35,3.23-.45A6,6,0,0,0,64.08,22Z"/>
</svg>